Coordinates
version=1
nRows=7
nColumns=40
inDegrees=yes

Units are S.I. units (second, meters, Newtons, ...)
Angles are in degrees.

endheader
time	pelvis_tilt	pelvis_list	pelvis_rotation	pelvis_tx	pelvis_ty	pelvis_tz	hip_flexion_r	hip_adduction_r	hip_rotation_r	knee_angle_r	knee_angle_r_beta	ankle_angle_r	subtalar_angle_r	mtp_angle_r	hip_flexion_l	hip_adduction_l	hip_rotation_l	knee_angle_l	knee_angle_l_beta	ankle_angle_l	subtalar_angle_l	mtp_angle_l	lumbar_extension	lumbar_bending	lumbar_rotation	arm_flex_r	arm_add_r	arm_rot_r	elbow_flex_r	pro_sup_r	wrist_flex_r	wrist_dev_r	arm_flex_l	arm_add_l	arm_rot_l	elbow_flex_l	pro_sup_l	wrist_flex_l	wrist_dev_l
     38.14314286	     -4.29663589	     -2.76970286	      3.13348611	      0.88652422	      0.92877821	      0.41975633	     34.61392927	     -7.46545005	     -7.14082989	     67.43128720	     67.43128720	     -2.68848958	    -18.25167137	      5.03821256	     11.12718789	     -2.11647625	     -2.12049170	     21.09021269	     21.09021269	     16.70414125	     -8.57265869	      1.52739202	    -10.42730744	      5.39074670	      0.20284724	     -0.55743492	    -17.17362869	    -17.14249847	     25.75580115	     47.40593687	      0.00000000	      0.00000000	     -4.67729056	    -15.03724177	     -7.79992666	     62.96033953	     46.66334104	      0.00000000	      0.00000000
     38.15628571	     -4.39489658	     -2.94920368	      2.70329792	      0.88544387	      0.92917565	      0.42061855	     35.45651996	     -7.07065949	     -7.51230957	     65.13494541	     65.13494541	     -1.88742185	    -18.16147218	      4.99742220	     10.50058260	     -2.38364726	     -2.38473642	     20.51324205	     20.51324205	     16.81302259	     -8.56715443	      1.61259073	    -10.50336466	      5.59618621	      0.03771111	     -1.06808872	    -17.34951803	    -17.29330742	     25.55967830	     47.41682049	      0.00000000	      0.00000000	     -4.61619957	    -15.13653881	     -7.84810335	     63.15622171	     46.67337385	      0.00000000	      0.00000000
     38.16942857	     -4.46971139	     -3.11096438	      2.26400841	      0.88443116	      0.92947175	      0.42166200	     36.07174519	     -6.61702866	     -7.84010043	     62.34362841	     62.34362841	     -1.10187951	    -17.94763434	      4.91081607	      9.85179804	     -2.63513501	     -2.65783299	     19.96401806	     19.96401806	     16.94836612	     -8.58501800	      1.65480007	    -10.60929747	      5.75916746	     -0.05576239	     -1.50738123	    -17.45697018	    -17.44386596	     25.41467832	     47.42602528	      0.00000000	      0.00000000	     -4.56847032	    -15.24130263	     -7.84984499	     63.50455658	     46.68181591	      0.00000000	      0.00000000
     38.18257143	     -4.51813536	     -3.27728469	      1.84548771	      0.88354164	      0.92969333	      0.42284746	     36.40953837	     -6.10546214	     -8.14517831	     59.05250619	     59.05250619	     -0.36203870	    -17.57667412	      4.71260796	      9.15914730	     -2.89598472	     -2.92694647	     19.40356235	     19.40356235	     17.07508732	     -8.58613602	      1.66237739	    -10.74201788	      5.92830488	     -0.12872868	     -1.88002454	    -17.52147460	    -17.62296345	     25.32204520	     47.43495994	      0.00000000	      0.00000000	     -4.55390112	    -15.32485688	     -7.77451876	     63.99140565	     46.68712074	      0.00000000	      0.00000000
     38.19571429	     -4.53740353	     -3.41169464	      1.44279160	      0.88278238	      0.92982835	      0.42409332	     36.46972184	     -5.60214903	     -8.42841562	     55.31998895	     55.31998895	      0.26806684	    -17.01209067	      4.27113166	      8.43603204	     -3.12497582	     -3.22503625	     18.86807761	     18.86807761	     17.19962239	     -8.57213671	      1.61464142	    -10.90438720	      6.07083739	     -0.20440150	     -2.16255078	    -17.52727770	    -17.85978938	     25.26805122	     47.44667951	      0.00000000	      0.00000000	     -4.58474418	    -15.42834853	     -7.60356528	     64.60406101	     46.69062884	      0.00000000	      0.00000000
     38.20885714	     -4.56348566	     -3.47844868	      1.04156107	      0.88222554	      0.92966043	      0.42547019	     36.19692593	     -5.17942410	     -8.75785734	     51.01839454	     51.01839454	     -0.17371268	    -16.53410596	      0.54539088	      7.70247269	     -3.29753054	     -3.61824377	     18.32103534	     18.32103534	     17.16152674	     -8.48475411	      0.93911727	    -11.06661524	      6.08717049	     -0.23852322	     -2.36475557	    -17.28202938	    -19.20500081	     25.46981704	     47.49623648	      0.00000000	      0.00000000	     -5.04886638	    -15.93783866	     -6.64605875	     66.32375944	     46.69203635	      0.00000000	      0.00000000
     38.22200000	     -4.70690798	     -3.59664953	      0.72028772	      0.88175089	      0.92925354	      0.42687862	     35.91882473	     -4.65057951	     -9.02148830	     46.64045216	     46.64045216	      0.49533078	    -15.46060942	      0.58995096	      7.17990625	     -3.49973797	     -3.81250902	     17.93888513	     17.93888513	     17.34681900	     -8.53538686	      0.90847113	    -10.98020896	      6.23175470	     -0.37827856	     -2.50529300	    -17.17114801	    -19.31187894	     25.42950150	     47.49891316	      0.00000000	      0.00000000	     -4.96061355	    -15.91154467	     -6.58537060	     66.39182621	     46.69546144	      0.00000000	      0.00000000
